<svg xmlns="http://www.w3.org/2000/svg" style="" data-bbox="40.593 179.471 446.266 153.058" viewBox="215.11 233.87 271.74 44.26">
    <rect data-fl-background="" fill="transparent"/>
    <path text="Contribue" fill="rgba(6, 182, 212, 1)" space="preserve" text-anchor="middle" offset="0.5" font-scale="contain" font-size="48" font-family="Modak" transform="matrix(1.2391573190689087, 0, 0, 1.2391573190689087, 350.9566955566406, 277.2267761230469)" data-fl-textpath="" font-weight="400" font-style="normal" d="M-94.205-9.33L-94.205-9.33Q-93.975-9.33 -93.785-9.45L-93.785-9.45L-93.785-11.58Q-92.195-12.66 -89.325-13.34Q-86.445-14.02 -83.735-14.02L-83.735-14.02Q-82.485-12.75 -81.655-10.23Q-80.825-7.71 -80.775-5.67L-80.775-5.67Q-81.245-4.73 -82.355-3.66Q-83.475-2.58 -85.045-1.66L-85.045-1.66Q-88.935 0.63 -93.975 0.63L-93.975 0.63Q-101.195 0.63 -105.345-3.56L-105.345-3.56Q-109.625-7.8 -109.625-15.32Q-109.625-22.83 -104.945-27.12L-104.945-27.12Q-102.875-29.04 -100.135-30.01Q-97.395-30.98 -94.375-30.98L-94.375-30.98Q-88.465-30.98 -84.695-28.13Q-80.915-25.27 -80.915-21.07L-80.915-21.07Q-80.915-17.91 -82.865-16.39Q-84.805-14.88 -88.135-14.88L-88.135-14.88Q-89.965-14.88 -91.815-15.79Q-93.665-16.69 -94.015-17.48L-94.015-17.48Q-94.015-19.41 -93.945-20.51L-93.945-20.51Q-93.995-20.53 -94.115-20.53L-94.115-20.53L-94.275-20.53Q-94.625-20.53 -94.825-20.33Q-95.025-20.13 -95.185-19.5Q-95.335-18.87 -95.335-16.05L-95.335-16.05Q-95.335-9.33 -94.205-9.33ZM-67.815-13.05L-67.815-13.05L-67.815-8.95Q-67.655-8.79 -67.275-8.79Q-66.905-8.79 -66.735-9.05Q-66.575-9.3 -66.575-9.94L-66.575-9.94L-66.575-13.29Q-66.575-15.54 -66.765-16.28Q-66.945-17.02 -67.465-17.02L-67.465-17.02Q-67.795-17.02 -68.025-16.78L-68.025-16.78Q-67.815-14.46 -67.815-13.05ZM-76.585-2.67L-76.585-2.67Q-80.425-6.38 -80.425-12.71Q-80.425-19.05 -76.805-22.72Q-73.185-26.39 -67.305-26.39Q-61.415-26.39 -57.785-22.57L-57.785-22.57Q-54.175-18.75 -54.175-12.62Q-54.175-6.49 -57.655-2.88Q-61.135 0.73 -67.115 0.73Q-73.095 0.73 -76.585-2.67ZM-27.782-16.41L-27.852-11.6Q-27.852-9.91 -27.482-8.88Q-27.102-7.85 -26.172-7.27L-26.172-7.27Q-26.142-7.15 -26.142-6.82L-26.142-6.82L-26.142-6.4Q-26.142-3.16 -28.012-1.37Q-29.872 0.42 -32.812 0.42Q-35.752 0.42 -37.582-1.24L-37.582-1.24Q-39.712-3.14 -39.712-7.01L-39.712-7.01Q-39.712-8.65 -39.562-9.9Q-39.412-11.16 -39.352-11.7Q-39.292-12.23 -39.222-12.7Q-39.152-13.17 -39.152-14.09Q-39.152-15 -39.402-15.4Q-39.642-15.8 -40.082-15.8Q-40.512-15.8 -40.842-15.61L-40.842-15.61L-40.532-11.79Q-40.952-9.42 -40.952-6.77Q-40.952-4.13 -39.762-1.95L-39.762-1.95Q-42.062 0.42 -46.202 0.42L-46.202 0.42Q-48.572 0.42 -50.312-0.82L-50.312-0.82Q-52.322-2.23 -52.322-4.55L-52.322-4.55L-52.322-15.89Q-53.702-17.84-53.702-20.68Q-53.702-23.53 -52.322-25.62L-52.322-25.62L-48.152-25.62Q-46.492-25.62 -45.312-24.38L-45.312-24.38Q-46.352-23.41 -46.352-22.78L-46.352-22.78Q-46.352-22.05 -45.522-22.05L-45.522-22.05Q-44.492-23.84 -42.372-25.01Q-40.252-26.18 -37.562-26.18L-37.562-26.18Q-33.502-26.18 -30.972-24.19L-30.972-24.19Q-27.782-21.68 -27.782-16.41L-27.782-16.41ZM-23.8-8.04L-23.8-14.81L-22.35-14.81Q-21.18-14.81 -21.18-15.59L-21.18-15.59Q-21.18-15.68 -21.22-15.87L-21.22-15.87L-26.47-15.87Q-26.99-17.51 -26.99-19.54Q-26.99-21.56 -26.68-22.83L-26.68-22.83Q-25.35-23.67 -23-25.41L-23-25.41Q-22.35-27 -21.29-30.47L-21.29-30.47Q-21.15-30.94 -20.97-31.38L-20.97-31.38Q-19.14-31.85 -16.79-31.85Q-14.45-31.85 -12.18-31.36L-12.18-31.36L-12.18-25.62L-8.12-25.62Q-6.76-23.55 -6.76-20.77L-6.76-20.77Q-6.76-19.5 -7.11-18.16Q-7.47-16.83 -8.12-15.89L-8.12-15.89L-11.47-15.89L-11.47-12.35Q-11.47-9.35 -8.97-9.35L-8.97-9.35L-7.96-9.35Q-7.47-7.57 -7.47-6.26L-7.47-6.26Q-7.47-3.02 -9.49-1.3Q-11.52 0.42 -15.38 0.42Q-19.23 0.42 -21.52-1.72Q-23.8-3.87 -23.8-8.04L-23.8-8.04ZM 0.9 0.3L 0.9 0.3Q-1.89 0.3 -3.55-0.7L-3.55-0.7Q-5.4-1.76 -5.4-3.82L-5.4-3.82L-5.4-15.89Q-6.78-17.84-6.78-20.68Q-6.78-23.53 -5.4-25.62L-5.4-25.62L-1.82-25.62Q 0.95-25.62  2.15-23.84L 2.15-23.84Q 1.56-23.18  1.11-22.17Q 0.67-21.16  0.67-20.73Q 0.67-20.3  0.89-20.09Q 1.11-19.88  1.54-19.88L 1.54-19.88Q 2.36-23.13  4.65-24.66L 4.65-24.66Q 6.55-25.95  9.34-25.95L 9.34-25.95Q 12.81-25.95  14.78-24.47L 14.78-24.47Q 15.48-22.59  15.48-19.89Q 15.48-17.18  14.4-14.98L 14.4-14.98Q 13.61-14.55  12.2-14.26Q 10.79-13.97  9.36-13.97Q 7.93-13.97  6.8-14.17Q 5.66-14.37  5.15-14.53L 5.15-14.53Q 4.96-14.34  4.96-13.99Q 4.96-13.64  5.41-13.46Q 5.87-13.29  6.95-13.08L 6.95-13.08L 6.95-1.31Q 4.4 0.3  0.9 0.3ZM 28.562-21.09L 28.562-21.09L 28.562-11.81Q 28.562-8.32  30.242-7.27L 30.242-7.27Q 30.272-7.15  30.272-6.82L 30.272-6.82L 30.272-6.4Q 30.272-2.95  28.392-1.22L 28.392-1.22Q 26.662 0.42  23.762 0.42Q 20.872 0.42  18.992-1.22L 18.992-1.22Q 16.632-3.3  16.632-7.31L 16.632-7.31L 16.632-22.55Q 17.052-22.85  17.542-23.04Q 18.032-23.23  18.572-23.51L 18.572-23.51Q 17.562-24.02  16.742-25.3Q 15.922-26.58  15.922-28.29L 15.922-28.29Q 15.922-31.24  17.872-33.12Q 19.812-34.99  22.642-34.99Q 25.462-34.99  27.372-33.08Q 29.282-31.17  29.282-28.29L 29.282-28.29Q 29.282-25.97  27.832-24.22Q 26.382-22.48  24.292-22.03L 24.292-22.03Q 24.292-21.14  24.972-21.14L 24.972-21.14Q 26.172-21.14  27.412-22.08L 27.412-22.08Q 28.352-21.35  28.562-21.09ZM 42.714-9.59L 42.714-9.59Q 42.954-9.35  43.274-9.35L 43.274-9.35Q 43.794-9.35  43.984-10.09Q 44.164-10.83  44.164-13.08L 44.164-13.08L 44.164-15.47Q 44.164-16.1  44.004-16.36Q 43.844-16.62  43.464-16.62Q 43.094-16.62  42.924-16.45L 42.924-16.45L 42.924-13.31Q 42.924-11.91  42.714-9.59ZM 43.654-28.78L 43.654-28.78L 43.654-26.7Q 41.684-26.58  40.044-26.1Q 38.404-25.62  38.404-24.98L 38.404-24.98Q 38.404-24.61  38.774-24.38L 38.774-24.38Q 41.354-25.64  44.234-25.64L 44.234-25.64Q 49.394-25.64  52.684-22.09Q 55.984-18.54  55.984-12.84L 55.984-12.84Q 55.984-5.95  51.994-2.46L 51.994-2.46Q 48.364 0.73  42.114 0.73Q 35.874 0.73  32.914-1.69L 32.914-1.69Q 31.304-3.02  31.304-5.16L 31.304-5.16L 31.304-31.9Q 32.424-32.55  34.004-32.98Q 35.594-33.4  37.204-33.4L 37.204-33.4Q 39.904-33.4  41.664-32.34L 41.664-32.34Q 43.654-31.1  43.654-28.78ZM 69.994-10.22L 69.994-10.22Q 70.274-10.22  70.604-10.45L 70.604-10.45Q 70.374-11.23  70.374-12.87L 70.374-12.87L 70.374-24.45Q 72.854-25.95  76.344-25.95L 76.344-25.95Q 78.314-25.95  79.804-25.42Q 81.294-24.89  82.094-24.02L 82.094-24.02L 82.094-11.81Q 82.094-8.32  83.774-7.27L 83.774-7.27Q 83.804-7.15  83.804-6.82L 83.804-6.82L 83.804-6.4Q 83.804-2.98  81.994-1.22L 81.994-1.22Q 80.354 0.42  77.474 0.42L 77.474 0.42Q 75.664 0.42  74.204-0.4Q 72.734-1.22  72.014-2.79L 72.014-2.79Q 71.214-2.79  71.214-2.02L 71.214-2.02Q 71.214-1.48  71.754-0.94L 71.754-0.94Q 71.004-0.33  69.954 0.05Q 68.894 0.42  66.844 0.42Q 64.794 0.42  62.844-0.42L 62.844-0.42Q 60.434-1.45  59.144-3.59L 59.144-3.59Q 57.574-6.12  57.574-10.01L 57.574-10.01L 57.574-15.89Q 56.384-17.98 56.384-20.48L 56.384-20.48Q 56.384-21.77  56.704-23.16Q 57.034-24.54  57.764-25.62L 57.764-25.62L 62.914-25.62Q 65.824-25.62  67.474-24.25Q 69.134-22.88  69.134-20.09L 69.134-20.09L 69.134-12.49Q 69.134-10.22  69.994-10.22ZM 98.163 0.73L 98.163 0.73Q 91.673 0.73  87.923-2.88L 87.923-2.88Q 84.083-6.52  84.083-12.83Q 84.083-19.15  88.043-22.85L 88.043-22.85Q 91.703-26.3  97.303-26.3Q 102.903-26.3  106.293-23.21Q 109.673-20.13  109.673-15.63L 109.673-15.63Q 109.673-11.63  106.883-9.59L 106.883-9.59Q 104.313-7.66  99.853-7.66L 99.853-7.66Q 96.523-7.66  94.233-9.05L 94.233-9.05Q 94.043-8.91  94.043-8.53L 94.043-8.53Q 94.043-7.83  95.893-7.24L 95.893-7.24Q 97.743-6.61  100.103-6.61Q 102.453-6.61  104.393-7.21Q 106.323-7.8  107.493-8.63L 107.493-8.63Q 108.063-8.13  108.403-6.81Q 108.743-5.48  108.743-4.39Q 108.743-3.3  108.523-2.46L 108.523-2.46Q 106.703-0.91  104.773-0.26L 104.773-0.26Q 102.063 0.73  98.163 0.73ZM 97.863-15.14L 97.863-15.14Q 99.033-15.14  99.033-16.03L 99.033-16.03Q 99.033-16.88  97.793-16.88Q 96.553-16.88  96.363-15.54L 96.363-15.54Q 97.023-15.14  97.863-15.14Z"/>
</svg>